<svg width="59" height="64" viewBox="0 0 59 64" fill="none" xmlns="http://www.w3.org/2000/svg">
<path d="M17.077 63.5759C11.845 63.5759 7.81297 62.1119 4.98097 59.1839C2.14897 56.2079 0.732971 51.9839 0.732971 46.5119V18.5759C0.732971 12.7199 2.10097 8.25593 4.83698 5.18393C7.57297 2.11193 11.653 0.575928 17.077 0.575928C22.549 0.575928 26.653 2.11193 29.389 5.18393C32.125 8.25593 33.493 12.7199 33.493 18.5759V46.5119C33.493 52.0319 32.077 56.2559 29.245 59.1839C26.413 62.1119 22.357 63.5759 17.077 63.5759ZM17.077 52.1999C17.989 52.1999 18.733 51.7919 19.309 50.9759C19.885 50.1119 20.173 49.1039 20.173 47.9519V17.4239C20.173 15.6479 19.957 14.3039 19.525 13.3919C19.141 12.4319 18.325 11.9519 17.077 11.9519C15.829 11.9519 15.013 12.4319 14.629 13.3919C14.245 14.3039 14.053 15.6479 14.053 17.4239V47.9519C14.053 49.1039 14.317 50.1119 14.845 50.9759C15.421 51.7919 16.165 52.1999 17.077 52.1999Z" fill="#FEDC5A"/>
<path d="M45.3671 15.3359C44.5511 16.3439 43.3991 17.1599 41.9111 17.7839C40.4711 18.4079 39.0791 18.7199 37.7351 18.7199V8.85593C39.8471 8.51993 41.9351 7.67993 43.9991 6.33593C46.1111 4.99193 47.6231 3.23993 48.5351 1.07993H58.4711V62.9999H45.3671V15.3359Z" fill="#FEDC5A"/>
</svg>
