<svg width="72" height="64" viewBox="0 0 72 64" fill="none" xmlns="http://www.w3.org/2000/svg">
<path d="M17.2059 63.5759C11.9739 63.5759 7.94188 62.1119 5.10988 59.1839C2.27788 56.2079 0.861877 51.9839 0.861877 46.5119V18.5759C0.861877 12.7199 2.22988 8.25593 4.96588 5.18393C7.70188 2.11193 11.7819 0.575928 17.2059 0.575928C22.6779 0.575928 26.7819 2.11193 29.5179 5.18393C32.2539 8.25593 33.6219 12.7199 33.6219 18.5759V46.5119C33.6219 52.0319 32.2059 56.2559 29.3739 59.1839C26.5419 62.1119 22.4859 63.5759 17.2059 63.5759ZM17.2059 52.1999C18.1179 52.1999 18.8619 51.7919 19.4379 50.9759C20.0139 50.1119 20.3019 49.1039 20.3019 47.9519V17.4239C20.3019 15.6479 20.0859 14.3039 19.6539 13.3919C19.2699 12.4319 18.4539 11.9519 17.2059 11.9519C15.9579 11.9519 15.1419 12.4319 14.7579 13.3919C14.3739 14.3039 14.1819 15.6479 14.1819 17.4239V47.9519C14.1819 49.1039 14.4459 50.1119 14.9739 50.9759C15.5499 51.7919 16.2939 52.1999 17.2059 52.1999Z" fill="#FEDC5A"/>
<path d="M39.16 60.0479C39.16 57.2159 39.592 54.5999 40.456 52.1999C41.368 49.7999 42.472 47.6399 43.768 45.7199C45.064 43.7999 46.768 41.5439 48.88 38.9519C51.04 36.2639 52.744 33.9839 53.992 32.1119C55.288 30.2399 56.368 28.1039 57.232 25.7039C58.144 23.2559 58.6 20.6159 58.6 17.7839C58.6 16.1039 58.36 14.8079 57.88 13.8959C57.4 12.9359 56.536 12.4559 55.288 12.4559C53.224 12.4559 52.192 14.3039 52.192 17.9999V25.5599H39.16L39.016 21.7439C39.016 17.0399 39.496 13.1759 40.456 10.1519C41.416 7.12793 43.096 4.82393 45.496 3.23993C47.896 1.65593 51.208 0.863928 55.432 0.863928C60.616 0.863928 64.624 2.32793 67.456 5.25593C70.288 8.13593 71.704 12.2399 71.704 17.5679C71.704 20.9759 71.224 24.0719 70.264 26.8559C69.352 29.5919 68.2 31.9919 66.808 34.0559C65.464 36.1199 63.664 38.5439 61.408 41.3279C59.776 43.2959 58.408 45.0479 57.304 46.5839C56.248 48.1199 55.288 49.7039 54.424 51.3359H71.272V62.9999H39.16V60.0479Z" fill="#FEDC5A"/>
</svg>
