<svg width="71" height="64" viewBox="0 0 71 64" fill="none" xmlns="http://www.w3.org/2000/svg">
<path d="M17.2058 63.5759C11.9738 63.5759 7.94182 62.1119 5.10982 59.1839C2.27782 56.2079 0.861816 51.9839 0.861816 46.5119V18.5759C0.861816 12.7199 2.22982 8.25593 4.96582 5.18393C7.70182 2.11193 11.7818 0.575928 17.2058 0.575928C22.6778 0.575928 26.7818 2.11193 29.5178 5.18393C32.2538 8.25593 33.6218 12.7199 33.6218 18.5759V46.5119C33.6218 52.0319 32.2058 56.2559 29.3738 59.1839C26.5418 62.1119 22.4858 63.5759 17.2058 63.5759ZM17.2058 52.1999C18.1178 52.1999 18.8618 51.7919 19.4378 50.9759C20.0138 50.1119 20.3018 49.1039 20.3018 47.9519V17.4239C20.3018 15.6479 20.0858 14.3039 19.6538 13.3919C19.2698 12.4319 18.4538 11.9519 17.2058 11.9519C15.9578 11.9519 15.1418 12.4319 14.7578 13.3919C14.3738 14.3039 14.1818 15.6479 14.1818 17.4239V47.9519C14.1818 49.1039 14.4458 50.1119 14.9738 50.9759C15.5498 51.7919 16.2938 52.1999 17.2058 52.1999Z" fill="#FEDC5A"/>
<path d="M53.9919 63.7199C48.5679 63.7199 44.6079 62.3039 42.1119 59.4719C39.6159 56.5919 38.3679 52.2239 38.3679 46.3679V39.8879H51.0399V46.3679C51.0399 48.2399 51.2799 49.7039 51.7599 50.7599C52.2399 51.7679 53.1999 52.2719 54.6399 52.2719C55.6479 52.2719 56.3679 51.9119 56.7999 51.1919C57.2799 50.4719 57.5679 49.6319 57.6639 48.6719C57.7599 47.6639 57.8079 46.2239 57.8079 44.3519V42.8399C57.8079 37.5119 56.0559 34.8479 52.5519 34.8479C51.9279 34.8479 51.5199 34.8719 51.3279 34.9199V23.8319C53.5359 23.8319 55.1919 23.3519 56.2959 22.3919C57.3999 21.3839 57.9519 19.7999 57.9519 17.6399C57.9519 14.1359 56.9439 12.3839 54.9279 12.3839C53.6799 12.3839 52.8639 12.6959 52.4799 13.3199C52.1439 13.9439 51.9039 14.7359 51.7599 15.6959C51.6639 16.6559 51.5919 17.3519 51.5439 17.7839V19.6559H38.7279L38.6559 17.4959C38.7039 11.8319 40.0479 7.67993 42.6879 5.03993C45.3279 2.35193 49.3839 1.00793 54.8559 1.00793C65.3679 1.00793 70.6239 6.50393 70.6239 17.4959C70.6239 20.7119 70.1919 23.2799 69.3279 25.1999C68.4639 27.0719 66.9759 28.3919 64.8639 29.1599C66.5919 30.0239 67.8639 31.1039 68.6799 32.3999C69.5439 33.6479 70.0959 35.1839 70.3359 37.0079C70.6239 38.8319 70.7679 41.2799 70.7679 44.3519C70.7679 50.7359 69.4239 55.5599 66.7359 58.8239C64.0959 62.0879 59.8479 63.7199 53.9919 63.7199Z" fill="#FEDC5A"/>
</svg>
