<svg width="65" height="65" viewBox="0 0 65 65" fill="none" xmlns="http://www.w3.org/2000/svg">
<rect width="65" height="65" rx="5" fill="#5454D4"/>
<path d="M22.9817 33.38C27.7417 33.38 30.8417 31.56 30.8417 28.66C30.8417 25.76 27.7417 23.94 22.9817 23.94C18.2217 23.94 15.1217 25.76 15.1217 28.66C15.1217 31.56 18.2217 33.38 22.9817 33.38ZM22.9817 26.92C25.4217 26.92 27.2817 27.52 27.2817 28.66C27.2817 29.78 25.4217 30.4 22.9817 30.4C20.5417 30.4 18.6817 29.78 18.6817 28.66C18.6817 27.52 20.5417 26.92 22.9817 26.92ZM31.6217 34.4H14.3417V37.48H17.9617V41.48H21.3217V37.48H24.6417V41.48H28.0017V37.48H31.6217V34.4ZM46.98 37.44V35.4H49.92V32.46H37.68V31.3H49.72V24.4H34.3V27.34H46.38V28.5H34.34V35.4H37.06V37.44H33.38V40.48H50.66V37.44H46.98ZM40.44 35.4H43.6V37.44H40.44V35.4Z" fill="#FEDC5A"/>
</svg>
