<svg width="68" height="69" viewBox="0 0 68 69" fill="none" xmlns="http://www.w3.org/2000/svg">
<path fill-rule="evenodd" clip-rule="evenodd" d="M33.9849 69C52.4565 69 67.4307 53.5538 67.4307 34.5C67.4307 15.4462 52.4565 0 33.9849 0C15.5133 0 0.539062 15.4462 0.539062 34.5C0.539062 53.5538 15.5133 69 33.9849 69Z" fill="#FEDC5A" fill-opacity="0.1"/>
<path d="M33.5001 26.1763C30.1081 25.4476 26.4927 26.9995 23.9254 30.4278C23.7502 30.6615 23.7692 30.9956 23.9696 31.2058L26.6333 34C28.419 30.9515 30.7509 28.2946 33.5001 26.1763Z" fill="#FEDC5A"/>
<path d="M36.4082 44.0874L39.1255 46.832C39.3289 47.0374 39.6521 47.0568 39.8781 46.8773C43.2151 44.2285 44.7175 40.4952 43.9796 37C41.9279 39.83 39.3576 42.236 36.4082 44.0874V44.0874Z" fill="#FEDC5A"/>
<path fill-rule="evenodd" clip-rule="evenodd" d="M46.4808 22.0009C46.6408 21.9915 46.7967 22.055 46.9073 22.1746C47.0196 22.2902 47.0791 22.4494 47.0712 22.6128C46.1996 38.4273 32.8158 43.9079 32.68 43.9618C32.6159 43.9873 32.5478 44.0002 32.4791 44C32.3303 44 32.1875 43.9389 32.0823 43.8304L25.9087 37.4622C25.7527 37.3015 25.7025 37.0614 25.7802 36.8486C25.8318 36.7085 31.0794 22.8305 46.4808 22.0009ZM33.6022 33.5794C33.6022 34.8583 34.6073 35.8951 35.8472 35.8951C37.087 35.8951 38.0921 34.8583 38.0921 33.5794C38.0921 32.3004 37.087 31.2637 35.8472 31.2637C34.6073 31.2637 33.6022 32.3004 33.6022 33.5794Z" fill="#FEDC5A"/>
<path d="M27.6056 42.9451C26.2068 41.685 23.9422 41.685 22.5434 42.9451C21.2567 44.1062 20.9328 47.9864 20.8988 48.4254C20.8877 48.5743 20.9456 48.7208 21.0587 48.8297C21.1718 48.9387 21.33 49.0003 21.4953 49H21.5353C22.0215 48.9698 26.3195 48.6769 27.6056 47.5163C29.0022 46.2534 29.0022 44.208 27.6056 42.9451Z" fill="#FEDC5A"/>
</svg>
