<svg width="69" height="69" viewBox="0 0 69 69" fill="none" xmlns="http://www.w3.org/2000/svg">
<path fill-rule="evenodd" clip-rule="evenodd" d="M34.486 69C53.0106 69 68.0277 53.5538 68.0277 34.5C68.0277 15.4462 53.0106 0 34.486 0C15.9615 0 0.944336 15.4462 0.944336 34.5C0.944336 53.5538 15.9615 69 34.486 69Z" fill="#F04037" fill-opacity="0.1"/>
<path d="M32.456 37H23.8776C23.5619 37 23.3057 36.7243 23.3057 36.3846V21.6154C23.3057 21.2757 23.5619 21 23.8776 21H32.456C32.7717 21 33.0279 21.2757 33.0279 21.6154V36.3846C33.0279 36.7243 32.7717 37 32.456 37Z" fill="#F04037"/>
<path d="M32.456 49H23.8776C23.5619 49 23.3057 48.712 23.3057 48.3571V40.6429C23.3057 40.288 23.5619 40 23.8776 40H32.456C32.7717 40 33.0279 40.288 33.0279 40.6429V48.3571C33.0279 48.712 32.7717 49 32.456 49Z" fill="#F04037"/>
<path d="M46.0663 30H37.4879C37.1722 30 36.916 29.712 36.916 29.3571V21.6429C36.916 21.288 37.1722 21 37.4879 21H46.0663C46.382 21 46.6382 21.288 46.6382 21.6429V29.3571C46.6382 29.712 46.382 30 46.0663 30Z" fill="#F04037"/>
<path d="M46.0663 49H37.4879C37.1722 49 36.916 48.7243 36.916 48.3846V33.6154C36.916 33.2757 37.1722 33 37.4879 33H46.0663C46.382 33 46.6382 33.2757 46.6382 33.6154V48.3846C46.6382 48.7243 46.382 49 46.0663 49Z" fill="#F04037"/>
</svg>
