<svg width="70" height="69" viewBox="0 0 70 69" fill="none" xmlns="http://www.w3.org/2000/svg">
<path fill-rule="evenodd" clip-rule="evenodd" d="M35.0004 69C54.219 69 69.7987 53.5538 69.7987 34.5C69.7987 15.4462 54.219 0 35.0004 0C15.7819 0 0.202148 15.4462 0.202148 34.5C0.202148 53.5538 15.7819 69 35.0004 69Z" fill="#5454D4" fill-opacity="0.1"/>
<path d="M36.514 49H20.5371C19.3338 49 18.3584 48.0103 18.3584 46.7895V23.2105C18.3584 21.9897 19.3338 21 20.5371 21H36.514V22.4737H20.5371C20.136 22.4737 19.8108 22.8036 19.8108 23.2105V46.7895C19.8108 47.1964 20.136 47.5263 20.5371 47.5263H36.514V49Z" fill="#5454D4"/>
<path fill-rule="evenodd" clip-rule="evenodd" d="M38.5312 21H50.4226C51.654 21 52.6523 21.9897 52.6523 23.2105V46.7895C52.6523 48.0103 51.654 49 50.4226 49H38.5312V21ZM42.9908 41.6315H48.1933C48.6038 41.6315 48.9365 41.3016 48.9365 40.8947C48.9365 40.4877 48.6038 40.1578 48.1933 40.1578H42.9908C42.5804 40.1578 42.2476 40.4877 42.2476 40.8947C42.2476 41.3016 42.5804 41.6315 42.9908 41.6315ZM48.1933 35.7369H42.9908C42.5804 35.7369 42.2476 35.407 42.2476 35C42.2476 34.5931 42.5804 34.2632 42.9908 34.2632H48.1933C48.6038 34.2632 48.9365 34.5931 48.9365 35C48.9365 35.407 48.6038 35.7369 48.1933 35.7369ZM42.9908 29.8421H48.1933C48.6038 29.8421 48.9365 29.5122 48.9365 29.1053C48.9365 28.6983 48.6038 28.3684 48.1933 28.3684H42.9908C42.5804 28.3684 42.2476 28.6983 42.2476 29.1053C42.2476 29.5122 42.5804 29.8421 42.9908 29.8421Z" fill="#5454D4"/>
</svg>
