<svg width="108" height="30" viewBox="0 0 108 30" fill="none" xmlns="http://www.w3.org/2000/svg">
<path d="M3.26496 30L0 0.13905H5.96211L7.66557 18.9803L9.36903 0.13905H15.0472L16.6797 18.9803L18.3122 0.13905H24.3453L21.0093 30H13.6987L12.1726 15.6083L10.7176 30H3.26496Z" fill="black"/>
<path d="M26.5958 30V0.13905H32.6643V10.8111H35.5389V0.13905H41.6075V30H35.5389V16.4426H32.6643V30H26.5958Z" fill="black"/>
<path d="M44.7491 30V0.13905H56.9572V5.90962H50.9596V11.7149H56.7088V17.3465H50.9596V24.1947H57.3476V30H44.7491Z" fill="black"/>
<path d="M59.8179 0.13905H69.187C70.6775 0.13905 71.825 0.475087 72.6294 1.14716C73.4574 1.79606 74.0134 2.72306 74.2973 3.92816C74.5813 5.11008 74.7232 6.62804 74.7232 8.48204C74.7232 10.1738 74.4984 11.4948 74.0489 12.445C73.5994 13.3951 72.8186 14.0556 71.7067 14.4264C72.6294 14.6118 73.2918 15.0637 73.694 15.7822C74.1199 16.5006 74.3328 17.4739 74.3328 18.7022L74.2619 30H68.2997V18.3198C68.2997 17.4855 68.1341 16.9525 67.8029 16.7207C67.4717 16.489 66.8684 16.3731 65.993 16.3731V30H59.8179V0.13905ZM67.4835 11.1935C68.3352 11.1935 68.7611 10.2897 68.7611 8.48204C68.7611 7.69409 68.7256 7.10313 68.6546 6.70915C68.5837 6.31518 68.4535 6.04867 68.2643 5.90962C68.075 5.74739 67.8029 5.66628 67.448 5.66628H66.0285V11.1935H67.4835Z" fill="black"/>
<path d="M77.1741 30V0.13905H89.3823V5.90962H83.3847V11.7149H89.1339V17.3465H83.3847V24.1947H89.7727V30H77.1741Z" fill="black"/>
<path d="M91.9591 28.5747C91.9591 27.2074 92.172 25.9444 92.5979 24.7856C93.0474 23.6269 93.5916 22.584 94.2304 21.657C94.8692 20.73 95.7091 19.6408 96.7501 18.3893C97.8147 17.0915 98.6546 15.9907 99.2698 15.0869C99.9086 14.1831 100.441 13.1518 100.867 11.993C101.316 10.8111 101.541 9.5365 101.541 8.16918C101.541 7.35805 101.423 6.73233 101.186 6.292C100.95 5.82851 100.524 5.59676 99.9086 5.59676C98.8912 5.59676 98.3826 6.48899 98.3826 8.27347V11.9235H91.9591L91.8881 10.0811C91.8881 7.80997 92.1247 5.94438 92.5979 4.48436C93.0711 3.02433 93.8991 1.91193 95.0821 1.14716C96.2651 0.382387 97.8975 0 99.9795 0C102.535 0 104.51 0.706836 105.906 2.12051C107.302 3.51101 108 5.49247 108 8.06489C108 9.71031 107.763 11.2051 107.29 12.5492C106.841 13.8702 106.273 15.029 105.587 16.0255C104.924 17.022 104.037 18.1924 102.925 19.5365C102.121 20.4867 101.446 21.3326 100.902 22.0742C100.382 22.8158 99.9086 23.5805 99.4827 24.3685H107.787V30H91.9591V28.5747Z" fill="black"/>
</svg>
